<?xml version="1.0" encoding="UTF-8" standalone="no"?>
<!DOCTYPE svg PUBLIC "-//W3C//DTD SVG 1.1//EN" "http://www.w3.org/Graphics/SVG/1.1/DTD/svg11.dtd">
<svg width="100%" height="100%" viewBox="0 0 743 300" version="1.1" xmlns="http://www.w3.org/2000/svg" xmlns:xlink="http://www.w3.org/1999/xlink" xml:space="preserve" xmlns:serif="http://www.serif.com/" style="fill-rule:evenodd;clip-rule:evenodd;stroke-linejoin:round;stroke-miterlimit:2;">
    <g transform="matrix(0,-4.16667,-4.16667,0,593.653,0)">
        <path d="M-35.712,-35.712C-55.435,-35.712 -71.424,-19.723 -71.424,0C-71.424,19.723 -55.435,35.712 -35.712,35.712C-15.989,35.712 0,19.723 0,0C0,-19.723 -15.989,-35.712 -35.712,-35.712" style="fill:rgb(153,234,72);fill-rule:nonzero;"/>
    </g>
    <g transform="matrix(4.16667,0,0,4.16667,32.3792,112.57)">
        <path d="M0,14.527C0.824,14.527 1.551,14.335 2.182,13.95C2.815,13.566 3.313,13.035 3.68,12.357C4.045,11.68 4.228,10.902 4.228,10.023C4.228,9.162 4.045,8.394 3.68,7.716C3.313,7.039 2.815,6.509 2.182,6.124C1.551,5.739 0.824,5.546 0,5.546C-0.788,5.546 -1.497,5.739 -2.129,6.124C-2.76,6.509 -3.255,7.039 -3.611,7.716C-3.969,8.394 -4.147,9.162 -4.147,10.023C-4.147,10.902 -3.969,11.68 -3.611,12.357C-3.255,13.035 -2.76,13.566 -2.129,13.95C-1.497,14.335 -0.788,14.527 0,14.527M0.411,17.822C-0.669,17.822 -1.662,17.611 -2.568,17.191C-3.474,16.77 -4.192,16.147 -4.724,15.323L-4.367,14.61L-4.367,17.493L-7.771,17.493L-7.771,-3.295L-4.147,-3.295L-4.147,5.52L-4.696,4.778C-4.184,3.973 -3.489,3.346 -2.609,2.897C-1.731,2.449 -0.714,2.224 0.439,2.224C1.848,2.224 3.121,2.572 4.256,3.268C5.391,3.963 6.292,4.897 6.961,6.068C7.628,7.24 7.964,8.559 7.964,10.023C7.964,11.47 7.634,12.787 6.975,13.977C6.316,15.167 5.418,16.106 4.283,16.792C3.148,17.479 1.857,17.822 0.411,17.822" style="fill:rgb(30,28,26);fill-rule:nonzero;"/>
    </g>
    <g transform="matrix(4.16667,0,0,4.16667,107.324,135.566)">
        <path d="M0,9.008C0.824,9.008 1.542,8.816 2.155,8.431C2.769,8.047 3.254,7.511 3.611,6.825C3.968,6.139 4.147,5.365 4.147,4.504C4.147,3.643 3.968,2.875 3.611,2.197C3.254,1.52 2.769,0.99 2.155,0.605C1.542,0.22 0.824,0.027 0,0.027C-0.806,0.027 -1.52,0.22 -2.142,0.605C-2.764,0.99 -3.254,1.52 -3.611,2.197C-3.968,2.875 -4.147,3.643 -4.147,4.504C-4.147,5.365 -3.968,6.139 -3.611,6.825C-3.254,7.511 -2.764,8.047 -2.142,8.431C-1.52,8.816 -0.806,9.008 0,9.008M0,12.303C-1.447,12.303 -2.77,11.965 -3.968,11.287C-5.168,10.61 -6.124,9.685 -6.838,8.513C-7.552,7.342 -7.909,6.006 -7.909,4.504C-7.909,3.003 -7.552,1.667 -6.838,0.495C-6.124,-0.676 -5.172,-1.602 -3.982,-2.279C-2.792,-2.956 -1.465,-3.295 0,-3.295C1.483,-3.295 2.819,-2.956 4.009,-2.279C5.199,-1.602 6.147,-0.681 6.851,0.481C7.556,1.644 7.909,2.985 7.909,4.504C7.909,6.006 7.551,7.342 6.837,8.513C6.123,9.685 5.171,10.61 3.981,11.287C2.791,11.965 1.464,12.303 0,12.303" style="fill:rgb(30,28,26);fill-rule:nonzero;"/>
    </g>
    <g transform="matrix(4.16667,0,0,4.16667,151.489,122.523)">
        <path d="M0,15.104L0,0.166L3.405,0.166L3.405,3.488L3.13,2.994C3.477,1.877 4.023,1.099 4.763,0.659C5.505,0.22 6.398,0 7.442,0L8.32,0L8.32,3.214L7.03,3.214C6.004,3.214 5.18,3.524 4.558,4.147C3.935,4.769 3.625,5.649 3.625,6.783L3.625,15.104L0,15.104Z" style="fill:rgb(30,28,26);fill-rule:nonzero;"/>
    </g>
    <g transform="matrix(4.16667,0,0,4.16667,224.488,109.02)">
        <path d="M0,18.509C-1.685,18.509 -2.993,18.048 -3.927,17.122C-4.861,16.198 -5.328,14.894 -5.328,13.209L-5.328,6.619L-7.881,6.619L-7.881,3.406L-7.607,3.406C-6.874,3.406 -6.312,3.214 -5.918,2.83C-5.524,2.444 -5.328,1.887 -5.328,1.154L-5.328,0L-1.703,0L-1.703,3.406L1.73,3.406L1.73,6.619L-1.703,6.619L-1.703,13.017C-1.703,13.512 -1.616,13.933 -1.441,14.281C-1.268,14.628 -0.993,14.894 -0.618,15.076C-0.242,15.26 0.238,15.351 0.824,15.351C0.952,15.351 1.103,15.342 1.277,15.324C1.45,15.307 1.62,15.288 1.784,15.269L1.784,18.345C1.529,18.382 1.236,18.417 0.906,18.454C0.577,18.491 0.275,18.509 0,18.509" style="fill:rgb(30,28,26);fill-rule:nonzero;"/>
    </g>
    <g transform="matrix(4.16667,0,0,4.16667,273.118,135.566)">
        <path d="M0,9.008C0.824,9.008 1.542,8.816 2.155,8.431C2.769,8.047 3.254,7.511 3.611,6.825C3.968,6.139 4.147,5.365 4.147,4.504C4.147,3.643 3.968,2.875 3.611,2.197C3.254,1.52 2.769,0.99 2.155,0.605C1.542,0.22 0.824,0.027 0,0.027C-0.806,0.027 -1.52,0.22 -2.142,0.605C-2.764,0.99 -3.254,1.52 -3.611,2.197C-3.968,2.875 -4.147,3.643 -4.147,4.504C-4.147,5.365 -3.968,6.139 -3.611,6.825C-3.254,7.511 -2.764,8.047 -2.142,8.431C-1.52,8.816 -0.806,9.008 0,9.008M0,12.303C-1.447,12.303 -2.77,11.965 -3.968,11.287C-5.168,10.61 -6.124,9.685 -6.838,8.513C-7.552,7.342 -7.909,6.006 -7.909,4.504C-7.909,3.003 -7.552,1.667 -6.838,0.495C-6.124,-0.676 -5.172,-1.602 -3.982,-2.279C-2.792,-2.956 -1.465,-3.295 0,-3.295C1.483,-3.295 2.819,-2.956 4.009,-2.279C5.199,-1.602 6.147,-0.681 6.851,0.481C7.556,1.644 7.909,2.985 7.909,4.504C7.909,6.006 7.551,7.342 6.837,8.513C6.123,9.685 5.171,10.61 3.981,11.287C2.791,11.965 1.464,12.303 0,12.303" style="fill:rgb(30,28,26);fill-rule:nonzero;"/>
    </g>
    <g transform="matrix(4.16667,0,0,4.16667,-166.176,-224.739)">
        <rect x="116.031" y="77.659" width="3.625" height="20.788" style="fill:rgb(30,28,26);"/>
    </g>
    <g transform="matrix(4.16667,0,0,4.16667,-166.176,-223.372)">
        <path d="M122.951,83.18L126.576,83.18L126.576,98.118L122.951,98.118L122.951,83.18ZM122.951,77.66L126.576,77.66L126.576,81.505L122.951,81.505L122.951,77.66Z" style="fill:rgb(30,28,26);fill-rule:nonzero;"/>
    </g>
    <g transform="matrix(4.16667,0,0,4.16667,374.954,121.84)">
        <path d="M0,15.268L0,0.33L3.405,0.33L3.405,3.267L3.13,2.745C3.477,1.849 4.051,1.166 4.846,0.699C5.643,0.233 6.571,0 7.634,0C8.732,0 9.707,0.238 10.558,0.714C11.41,1.19 12.073,1.854 12.549,2.704C13.025,3.555 13.263,4.54 13.263,5.656L13.263,15.268L9.665,15.268L9.665,6.508C9.665,5.848 9.537,5.282 9.281,4.806C9.025,4.33 8.668,3.963 8.211,3.707C7.752,3.45 7.231,3.322 6.645,3.322C6.059,3.322 5.537,3.45 5.08,3.707C4.622,3.963 4.265,4.33 4.009,4.806C3.752,5.282 3.625,5.848 3.625,6.508L3.625,15.268L0,15.268Z" style="fill:rgb(30,28,26);fill-rule:nonzero;"/>
    </g>
    <g transform="matrix(4.16667,0,0,4.16667,-166.176,-153.047)">
        <rect x="154.842" y="77.497" width="3.682" height="3.906" style="fill:rgb(30,28,26);"/>
    </g>
    <g transform="matrix(4.16667,0,0,4.16667,533.837,112.088)">
        <path d="M0,14.758C0.818,14.758 1.548,14.563 2.19,14.172C2.831,13.782 3.334,13.243 3.696,12.554C4.059,11.866 4.24,11.076 4.24,10.182C4.24,9.308 4.059,8.527 3.696,7.839C3.334,7.152 2.831,6.612 2.19,6.222C1.548,5.83 0.818,5.635 0,5.635C-0.818,5.635 -1.553,5.83 -2.204,6.222C-2.855,6.612 -3.361,7.152 -3.724,7.839C-4.086,8.527 -4.268,9.308 -4.268,10.182C-4.268,11.076 -4.086,11.866 -3.724,12.554C-3.361,13.243 -2.855,13.782 -2.204,14.172C-1.553,14.563 -0.818,14.758 0,14.758M-0.39,18.105C-1.86,18.105 -3.176,17.757 -4.338,17.059C-5.501,16.362 -6.417,15.408 -7.085,14.2C-7.755,12.991 -8.09,11.652 -8.09,10.182C-8.09,8.695 -7.751,7.356 -7.072,6.165C-6.393,4.976 -5.477,4.027 -4.324,3.321C-3.172,2.613 -1.87,2.26 -0.419,2.26C0.734,2.26 1.762,2.489 2.664,2.944C3.565,3.4 4.277,4.037 4.798,4.854L4.24,5.608L4.24,-3.347L7.895,-3.347L7.895,17.771L4.436,17.771L4.436,14.842L4.827,15.566C4.305,16.404 3.58,17.036 2.65,17.464C1.72,17.891 0.706,18.105 -0.39,18.105" style="fill:rgb(30,28,26);fill-rule:nonzero;"/>
    </g>
    <g transform="matrix(4.16667,0,0,4.16667,610.906,121.506)">
        <path d="M0,15.845C-1.563,15.845 -2.934,15.492 -4.115,14.785C-5.296,14.079 -6.212,13.121 -6.863,11.912C-7.514,10.703 -7.839,9.364 -7.839,7.895C-7.839,6.37 -7.504,5.017 -6.835,3.836C-6.166,2.655 -5.264,1.72 -4.13,1.032C-2.994,0.344 -1.712,0 -0.279,0C0.91,0 1.957,0.195 2.859,0.586C3.761,0.976 4.528,1.515 5.16,2.203C5.792,2.892 6.276,3.678 6.611,4.561C6.946,5.444 7.114,6.397 7.114,7.42C7.114,7.699 7.099,7.974 7.072,8.243C7.043,8.513 6.992,8.76 6.919,8.982L-4.798,8.982L-4.798,6.165L4.854,6.165L3.097,7.476C3.282,6.621 3.25,5.858 2.999,5.189C2.747,4.519 2.338,3.989 1.771,3.598C1.203,3.208 0.52,3.013 -0.279,3.013C-1.042,3.013 -1.721,3.208 -2.316,3.598C-2.912,3.989 -3.362,4.547 -3.669,5.273C-3.975,5.998 -4.092,6.881 -4.017,7.922C-4.092,8.853 -3.966,9.676 -3.64,10.391C-3.316,11.107 -2.832,11.661 -2.19,12.051C-1.548,12.442 -0.809,12.637 0.027,12.637C0.865,12.637 1.576,12.46 2.161,12.107C2.747,11.754 3.208,11.28 3.543,10.684L6.5,12.134C6.202,12.86 5.737,13.502 5.105,14.059C4.472,14.618 3.719,15.055 2.845,15.371C1.971,15.687 1.023,15.845 0,15.845" style="fill:rgb(30,28,26);fill-rule:nonzero;"/>
    </g>
    <g transform="matrix(4.16667,0,0,4.16667,669.951,122.903)">
        <path d="M0,15.175L-5.971,0L-1.981,0L2.343,11.939L0.864,11.939L5.216,0L9.206,0L3.235,15.175L0,15.175Z" style="fill:rgb(30,28,26);fill-rule:nonzero;"/>
    </g>
</svg>
