<?xml version="1.0" encoding="UTF-8" standalone="no"?>
<!DOCTYPE svg PUBLIC "-//W3C//DTD SVG 1.1//EN" "http://www.w3.org/Graphics/SVG/1.1/DTD/svg11.dtd">
<svg width="100%" height="100%" viewBox="0 0 611 242" version="1.1" xmlns="http://www.w3.org/2000/svg" xmlns:xlink="http://www.w3.org/1999/xlink" xml:space="preserve" xmlns:serif="http://www.serif.com/" style="fill-rule:evenodd;clip-rule:evenodd;stroke-linejoin:round;stroke-miterlimit:2;">
    <rect x="0" y="0" width="610.894" height="241.764" style="fill:white;"/>
    <g id="Logo" transform="matrix(6.97659,-3.99144e-17,3.99144e-17,6.97659,-83.8673,-568.869)">
        <g transform="matrix(0.203987,0,0,0.203987,-256.892,17.1228)">
            <circle cx="1647.02" cy="400.73" r="74.732" style="fill:rgb(153,234,72);"/>
        </g>
        <g id="_.dev" serif:id=".dev" transform="matrix(0.24,0,0,0.24,-341.663,-10.4888)">
            <rect x="1701.01" y="464.272" width="6.625" height="7" style="fill-rule:nonzero;"/>
            <path d="M1729.45,471.872C1726.82,471.872 1724.47,471.245 1722.4,469.99C1720.32,468.736 1718.68,467.032 1717.48,464.878C1716.28,462.724 1715.68,460.326 1715.68,457.684C1715.68,455.009 1716.29,452.603 1717.5,450.465C1718.72,448.328 1720.36,446.632 1722.43,445.378C1724.5,444.124 1726.83,443.497 1729.41,443.497C1731.48,443.497 1733.33,443.903 1734.94,444.715C1736.55,445.528 1737.83,446.659 1738.76,448.109L1737.75,449.497L1737.75,433.422L1744.31,433.422L1744.31,471.272L1738.12,471.272L1738.12,466.022L1738.8,467.322C1737.86,468.805 1736.57,469.934 1734.9,470.709C1733.24,471.484 1731.42,471.872 1729.45,471.872ZM1730.17,465.872C1731.65,465.872 1732.95,465.522 1734.09,464.822C1735.23,464.122 1736.12,463.153 1736.77,461.915C1737.42,460.678 1737.75,459.268 1737.75,457.684C1737.75,456.101 1737.42,454.69 1736.77,453.453C1736.12,452.215 1735.23,451.247 1734.09,450.547C1732.95,449.847 1731.65,449.497 1730.17,449.497C1728.7,449.497 1727.38,449.853 1726.22,450.565C1725.04,451.278 1724.13,452.245 1723.48,453.465C1722.82,454.686 1722.5,456.093 1722.5,457.684C1722.5,459.268 1722.82,460.678 1723.48,461.915C1724.13,463.153 1725.04,464.122 1726.21,464.822C1727.38,465.522 1728.7,465.872 1730.17,465.872Z" style="fill-rule:nonzero;"/>
            <path d="M1763.27,471.872C1760.47,471.872 1758.02,471.238 1755.91,469.972C1753.81,468.705 1752.17,466.993 1751.01,464.834C1749.84,462.676 1749.26,460.272 1749.26,457.622C1749.26,454.897 1749.86,452.474 1751.05,450.353C1752.25,448.232 1753.87,446.559 1755.9,445.334C1757.94,444.109 1760.24,443.497 1762.8,443.497C1764.9,443.497 1766.77,443.843 1768.4,444.534C1770.03,445.226 1771.41,446.186 1772.54,447.415C1773.67,448.645 1774.53,450.055 1775.12,451.647C1775.71,453.238 1776.01,454.947 1776.01,456.772C1776.01,457.255 1775.99,457.743 1775.94,458.234C1775.89,458.726 1775.81,459.163 1775.7,459.547L1754.7,459.547L1754.7,454.547L1771.97,454.547L1768.86,456.872C1769.18,455.338 1769.12,453.972 1768.66,452.772C1768.21,451.572 1767.47,450.622 1766.45,449.922C1765.43,449.222 1764.21,448.872 1762.8,448.872C1761.4,448.872 1760.18,449.218 1759.13,449.909C1758.07,450.601 1757.27,451.603 1756.72,452.915C1756.17,454.228 1755.95,455.813 1756.07,457.672C1755.93,459.355 1756.15,460.832 1756.74,462.103C1757.33,463.374 1758.19,464.361 1759.34,465.065C1760.49,465.77 1761.82,466.122 1763.35,466.122C1764.84,466.122 1766.11,465.805 1767.15,465.172C1768.2,464.538 1769.03,463.697 1769.63,462.647L1774.93,465.209C1774.4,466.509 1773.57,467.661 1772.43,468.665C1771.29,469.67 1769.94,470.455 1768.39,471.022C1766.84,471.588 1765.13,471.872 1763.27,471.872Z" style="fill-rule:nonzero;"/>
            <path d="M1788.66,471.272L1777.98,444.097L1785.11,444.097L1792.9,465.459L1790.23,465.459L1798.03,444.097L1805.17,444.097L1794.47,471.272L1788.66,471.272Z" style="fill-rule:nonzero;"/>
        </g>
        <g id="bortolin" transform="matrix(0.24,0,0,0.24,-350.827,50.0995)">
            <path d="M1548.65,218.821C1546.68,218.821 1544.87,218.433 1543.22,217.658C1541.57,216.883 1540.26,215.754 1539.3,214.271L1539.98,212.971L1539.98,218.221L1533.79,218.221L1533.79,180.371L1540.35,180.371L1540.35,196.446L1539.34,195.058C1540.28,193.608 1541.56,192.477 1543.16,191.664C1544.77,190.852 1546.62,190.446 1548.69,190.446C1551.27,190.446 1553.6,191.073 1555.67,192.327C1557.74,193.581 1559.38,195.277 1560.6,197.414C1561.81,199.552 1562.41,201.958 1562.41,204.633C1562.41,207.275 1561.82,209.673 1560.62,211.827C1559.41,213.981 1557.78,215.685 1555.71,216.939C1553.64,218.194 1551.29,218.821 1548.65,218.821ZM1547.93,212.821C1549.43,212.821 1550.75,212.471 1551.91,211.771C1553.06,211.071 1553.97,210.102 1554.62,208.864C1555.28,207.627 1555.6,206.217 1555.6,204.633C1555.6,203.042 1555.28,201.635 1554.62,200.414C1553.97,199.194 1553.06,198.227 1551.91,197.514C1550.75,196.802 1549.43,196.446 1547.93,196.446C1546.48,196.446 1545.18,196.796 1544.03,197.496C1542.88,198.196 1541.98,199.164 1541.33,200.402C1540.68,201.639 1540.35,203.05 1540.35,204.633C1540.35,206.217 1540.68,207.627 1541.33,208.864C1541.98,210.102 1542.88,211.071 1544.03,211.771C1545.18,212.471 1546.48,212.821 1547.93,212.821Z" style="fill-rule:nonzero;"/>
            <path d="M1580.66,218.821C1578.01,218.821 1575.59,218.206 1573.41,216.977C1571.23,215.748 1569.49,214.062 1568.2,211.921C1566.91,209.779 1566.27,207.346 1566.27,204.621C1566.27,201.879 1566.91,199.446 1568.2,197.321C1569.48,195.196 1571.22,193.519 1573.39,192.289C1575.57,191.06 1577.99,190.446 1580.66,190.446C1583.34,190.446 1585.76,191.058 1587.92,192.283C1590.08,193.508 1591.81,195.183 1593.09,197.308C1594.37,199.433 1595.02,201.871 1595.02,204.621C1595.02,207.354 1594.37,209.792 1593.07,211.933C1591.78,214.075 1590.05,215.758 1587.88,216.983C1585.72,218.208 1583.32,218.821 1580.66,218.821ZM1580.66,212.821C1582.14,212.821 1583.44,212.471 1584.57,211.771C1585.69,211.071 1586.58,210.1 1587.23,208.858C1587.88,207.617 1588.2,206.204 1588.2,204.621C1588.2,203.037 1587.88,201.635 1587.23,200.414C1586.58,199.194 1585.69,198.227 1584.57,197.514C1583.44,196.802 1582.14,196.446 1580.66,196.446C1579.19,196.446 1577.88,196.802 1576.75,197.514C1575.61,198.227 1574.71,199.194 1574.06,200.414C1573.4,201.635 1573.08,203.037 1573.08,204.621C1573.08,206.204 1573.4,207.617 1574.06,208.858C1574.71,210.1 1575.61,211.071 1576.75,211.771C1577.88,212.471 1579.19,212.821 1580.66,212.821Z" style="fill-rule:nonzero;"/>
            <path d="M1599.97,218.221L1599.97,191.046L1606.15,191.046L1606.15,197.058L1605.65,196.183C1606.26,194.142 1607.24,192.723 1608.6,191.927C1609.96,191.131 1611.58,190.733 1613.47,190.733L1615.09,190.733L1615.09,196.546L1612.74,196.546C1610.88,196.546 1609.38,197.114 1608.24,198.252C1607.1,199.389 1606.53,200.996 1606.53,203.071L1606.53,218.221L1599.97,218.221Z" style="fill-rule:nonzero;"/>
            <path d="M1631.84,218.521C1628.77,218.521 1626.38,217.677 1624.7,215.989C1623.01,214.302 1622.16,211.933 1622.16,208.883L1622.16,196.858C1622.16,196.858 1618.26,197.827 1617.48,196.858C1616.7,195.889 1617.48,191.046 1617.48,191.046L1617.98,191.046C1619.31,191.046 1620.34,190.689 1621.07,189.977C1621.8,189.264 1622.16,188.242 1622.16,186.908L1622.16,184.846L1628.73,184.846L1628.73,191.046L1635,191.046L1635,196.858L1628.73,196.858L1628.73,208.508C1628.73,209.433 1628.89,210.212 1629.2,210.846C1629.52,211.479 1630.02,211.958 1630.71,212.283C1631.4,212.608 1632.27,212.771 1633.32,212.771C1633.56,212.771 1633.84,212.754 1634.15,212.721C1634.47,212.687 1634.79,212.654 1635.1,212.621L1635.1,218.221C1634.63,218.296 1634.09,218.364 1633.49,218.427C1632.89,218.489 1632.34,218.521 1631.84,218.521Z" style="fill-rule:nonzero;"/>
            <path d="M1653.1,218.821C1650.44,218.821 1648.03,218.206 1645.85,216.977C1643.67,215.748 1641.93,214.062 1640.64,211.921C1639.35,209.779 1638.7,207.346 1638.7,204.621C1638.7,201.879 1639.35,199.446 1640.63,197.321C1641.92,195.196 1643.65,193.519 1645.83,192.289C1648,191.06 1650.43,190.446 1653.1,190.446C1655.78,190.446 1658.2,191.058 1660.36,192.283C1662.52,193.508 1664.24,195.183 1665.53,197.308C1666.81,199.433 1667.45,201.871 1667.45,204.621C1667.45,207.354 1666.8,209.792 1665.51,211.933C1664.21,214.075 1662.48,215.758 1660.32,216.983C1658.16,218.208 1655.75,218.821 1653.1,218.821ZM1653.1,212.821C1654.58,212.821 1655.88,212.471 1657,211.771C1658.13,211.071 1659.02,210.1 1659.66,208.858C1660.32,207.617 1660.64,206.204 1660.64,204.621C1660.64,203.037 1660.32,201.635 1659.66,200.414C1659.02,199.194 1658.13,198.227 1657,197.514C1655.88,196.802 1654.58,196.446 1653.1,196.446C1651.63,196.446 1650.32,196.802 1649.18,197.514C1648.05,198.227 1647.15,199.194 1646.5,200.414C1645.84,201.635 1645.52,203.037 1645.52,204.621C1645.52,206.204 1645.84,207.617 1646.5,208.858C1647.15,210.1 1648.05,211.071 1649.18,211.771C1650.32,212.471 1651.63,212.821 1653.1,212.821Z" style="fill-rule:nonzero;"/>
            <rect x="1672.4" y="180.371" width="6.563" height="37.85" style="fill-rule:nonzero;"/>
            <path d="M1685.02,218.221L1685.02,191.046L1691.58,191.046L1691.58,218.221L1685.02,218.221ZM1685.02,187.971L1685.02,180.971L1691.58,180.971L1691.58,187.971L1685.02,187.971Z" style="fill-rule:nonzero;"/>
            <path d="M1697.63,218.221L1697.63,191.046L1703.82,191.046L1703.82,196.396L1703.3,195.446C1703.94,193.787 1704.99,192.539 1706.43,191.702C1707.87,190.864 1709.55,190.446 1711.48,190.446C1713.5,190.446 1715.29,190.879 1716.83,191.746C1718.37,192.612 1719.58,193.817 1720.45,195.358C1721.32,196.9 1721.75,198.687 1721.75,200.72L1721.75,218.221L1715.19,218.221L1715.19,202.271C1715.19,201.062 1714.96,200.029 1714.5,199.171C1714.04,198.312 1713.4,197.644 1712.57,197.164C1711.75,196.685 1710.79,196.446 1709.72,196.446C1708.64,196.446 1707.68,196.685 1706.84,197.164C1706,197.644 1705.35,198.314 1704.88,199.177C1704.42,200.039 1704.19,201.071 1704.19,202.271L1704.19,218.221L1697.63,218.221Z" style="fill-rule:nonzero;"/>
        </g>
    </g>
</svg>
