<?xml version="1.0" encoding="UTF-8" standalone="no"?>
<!DOCTYPE svg PUBLIC "-//W3C//DTD SVG 1.1//EN" "http://www.w3.org/Graphics/SVG/1.1/DTD/svg11.dtd">
<svg width="100%" height="100%" viewBox="0 0 512 512" version="1.1" xmlns="http://www.w3.org/2000/svg" xmlns:xlink="http://www.w3.org/1999/xlink" xml:space="preserve" xmlns:serif="http://www.serif.com/" style="fill-rule:evenodd;clip-rule:evenodd;strokeLinejoin:round;stroke-miterlimit:2;">
    <g id="Logo" transform="matrix(16.793,-9.60759e-17,9.60759e-17,16.793,-1071.96,-1404.26)">
        <g transform="matrix(0.203987,0,0,0.203987,-256.892,17.1228)">
            <circle cx="1647.02" cy="400.73" r="74.732" style="fill:rgb(153,234,72);"/>
        </g>
        <g id="_.dev" serif:id=".dev" transform="matrix(0.24,0,0,0.24,-341.663,-10.4888)">
            <rect x="1701.01" y="464.272" width="6.625" height="7" style="fill-rule:nonzero;"/>
            <path d="M1729.45,471.872C1726.82,471.872 1724.47,471.245 1722.4,469.99C1720.32,468.736 1718.68,467.032 1717.48,464.878C1716.28,462.724 1715.68,460.326 1715.68,457.684C1715.68,455.009 1716.29,452.603 1717.5,450.465C1718.72,448.328 1720.36,446.632 1722.43,445.378C1724.5,444.124 1726.83,443.497 1729.41,443.497C1731.48,443.497 1733.33,443.903 1734.94,444.715C1736.55,445.528 1737.83,446.659 1738.76,448.109L1737.75,449.497L1737.75,433.422L1744.31,433.422L1744.31,471.272L1738.12,471.272L1738.12,466.022L1738.8,467.322C1737.86,468.805 1736.57,469.934 1734.9,470.709C1733.24,471.484 1731.42,471.872 1729.45,471.872ZM1730.17,465.872C1731.65,465.872 1732.95,465.522 1734.09,464.822C1735.23,464.122 1736.12,463.153 1736.77,461.915C1737.42,460.678 1737.75,459.268 1737.75,457.684C1737.75,456.101 1737.42,454.69 1736.77,453.453C1736.12,452.215 1735.23,451.247 1734.09,450.547C1732.95,449.847 1731.65,449.497 1730.17,449.497C1728.7,449.497 1727.38,449.853 1726.22,450.565C1725.04,451.278 1724.13,452.245 1723.48,453.465C1722.82,454.686 1722.5,456.093 1722.5,457.684C1722.5,459.268 1722.82,460.678 1723.48,461.915C1724.13,463.153 1725.04,464.122 1726.21,464.822C1727.38,465.522 1728.7,465.872 1730.17,465.872Z" style="fill-rule:nonzero;"/>
            <path d="M1763.27,471.872C1760.47,471.872 1758.02,471.238 1755.91,469.972C1753.81,468.705 1752.17,466.993 1751.01,464.834C1749.84,462.676 1749.26,460.272 1749.26,457.622C1749.26,454.897 1749.86,452.474 1751.05,450.353C1752.25,448.232 1753.87,446.559 1755.9,445.334C1757.94,444.109 1760.24,443.497 1762.8,443.497C1764.9,443.497 1766.77,443.843 1768.4,444.534C1770.03,445.226 1771.41,446.186 1772.54,447.415C1773.67,448.645 1774.53,450.055 1775.12,451.647C1775.71,453.238 1776.01,454.947 1776.01,456.772C1776.01,457.255 1775.99,457.743 1775.94,458.234C1775.89,458.726 1775.81,459.163 1775.7,459.547L1754.7,459.547L1754.7,454.547L1771.97,454.547L1768.86,456.872C1769.18,455.338 1769.12,453.972 1768.66,452.772C1768.21,451.572 1767.47,450.622 1766.45,449.922C1765.43,449.222 1764.21,448.872 1762.8,448.872C1761.4,448.872 1760.18,449.218 1759.13,449.909C1758.07,450.601 1757.27,451.603 1756.72,452.915C1756.17,454.228 1755.95,455.813 1756.07,457.672C1755.93,459.355 1756.15,460.832 1756.74,462.103C1757.33,463.374 1758.19,464.361 1759.34,465.065C1760.49,465.77 1761.82,466.122 1763.35,466.122C1764.84,466.122 1766.11,465.805 1767.15,465.172C1768.2,464.538 1769.03,463.697 1769.63,462.647L1774.93,465.209C1774.4,466.509 1773.57,467.661 1772.43,468.665C1771.29,469.67 1769.94,470.455 1768.39,471.022C1766.84,471.588 1765.13,471.872 1763.27,471.872Z" style="fill-rule:nonzero;"/>
            <path d="M1788.66,471.272L1777.98,444.097L1785.11,444.097L1792.9,465.459L1790.23,465.459L1798.03,444.097L1805.17,444.097L1794.47,471.272L1788.66,471.272Z" style="fill-rule:nonzero;"/>
        </g>
    </g>
</svg>
